<?xml version="1.0" encoding="UTF-8"?>
<svg width="794px" height="500px" viewBox="0 0 794 500" version="1.1" xmlns="http://www.w3.org/2000/svg" xmlns:xlink="http://www.w3.org/1999/xlink">
    <!-- Generator: Sketch 55.2 (78181) - https://sketchapp.com -->
    <title>Group</title>
    <desc>Created with Sketch.</desc>
    <g id="GROUPS-WEBSITE" stroke="none" stroke-width="1" fill="none" fill-rule="evenodd">
        <g id="Blue-Customer-Service-Page-Copy" transform="translate(-600.000000, -179.000000)">
            <g id="Group" transform="translate(600.000000, 179.000000)">
                <polygon id="Fill-3" fill="#CC0033" points="576.53969 495.361513 649.481946 495.361513 649.481946 485.247317 576.53969 485.247317"></polygon>
                <polygon id="Fill-4" fill="#FFFFFE" points="629.25953 495.361513 631.426217 495.361513 631.426217 485.247317 629.25953 485.247317"></polygon>
                <polygon id="Fill-5" fill="#FFFFFE" points="635.759592 495.361513 637.92628 495.361513 637.92628 485.247317 635.759592 485.247317"></polygon>
                <polygon id="Fill-6" fill="#FFFFFE" points="642.259655 495.361513 644.426342 495.361513 644.426342 485.247317 642.259655 485.247317"></polygon>
                <polygon id="Fill-7" fill="#CC0033" points="569.317399 482.863257 642.259655 482.863257 642.259655 472.749061 569.317399 472.749061"></polygon>
                <polygon id="Fill-8" fill="#FFFFFE" points="621.315009 482.863257 623.481697 482.863257 623.481697 472.749061 621.315009 472.749061"></polygon>
                <polygon id="Fill-9" fill="#FFFFFE" points="627.815071 482.863257 629.981759 482.863257 629.981759 472.749061 627.815071 472.749061"></polygon>
                <polygon id="Fill-10" fill="#FFFFFE" points="634.315134 482.863257 636.481821 482.863257 636.481821 472.749061 634.315134 472.749061"></polygon>
                <polygon id="Fill-11" fill="#CC0033" points="583.762704 470.365001 656.704238 470.365001 656.704238 460.250805 583.762704 460.250805"></polygon>
                <polygon id="Fill-12" fill="#FFFFFE" points="637.20405 470.365001 639.370738 470.365001 639.370738 460.250805 637.20405 460.250805"></polygon>
                <polygon id="Fill-13" fill="#FFFFFE" points="643.704113 470.365001 645.8708 470.365001 645.8708 460.250805 643.704113 460.250805"></polygon>
                <polygon id="Fill-14" fill="#FFFFFE" points="650.204175 470.365001 652.370863 470.365001 652.370863 460.250805 650.204175 460.250805"></polygon>
                <polygon id="Fill-15" fill="#CC0033" points="569.317399 445.369211 642.259655 445.369211 642.259655 435.255015 569.317399 435.255015"></polygon>
                <polygon id="Fill-16" fill="#FFFFFE" points="621.315009 445.369211 623.481697 445.369211 623.481697 435.255015 621.315009 435.255015"></polygon>
                <polygon id="Fill-17" fill="#FFFFFE" points="627.815071 445.369211 629.981759 445.369211 629.981759 435.255015 627.815071 435.255015"></polygon>
                <polygon id="Fill-18" fill="#FFFFFE" points="634.315134 445.369211 636.481821 445.369211 636.481821 435.255015 634.315134 435.255015"></polygon>
                <polygon id="Fill-19" fill="#CC0033" points="583.762704 432.870233 656.704238 432.870233 656.704238 422.756037 583.762704 422.756037"></polygon>
                <polygon id="Fill-20" fill="#FFFFFE" points="637.20405 432.870233 639.370738 432.870233 639.370738 422.756037 637.20405 422.756037"></polygon>
                <polygon id="Fill-21" fill="#FFFFFE" points="643.704113 432.870233 645.8708 432.870233 645.8708 422.756037 643.704113 422.756037"></polygon>
                <polygon id="Fill-22" fill="#FFFFFE" points="650.204175 432.870233 652.370863 432.870233 652.370863 422.756037 650.204175 422.756037"></polygon>
                <polygon id="Fill-23" fill="#CC0033" points="576.53969 457.866745 649.481946 457.866745 649.481946 447.752549 576.53969 447.752549"></polygon>
                <polygon id="Fill-24" fill="#FFFFFE" points="629.25953 457.866745 631.426217 457.866745 631.426217 447.752549 629.25953 447.752549"></polygon>
                <polygon id="Fill-25" fill="#FFFFFE" points="635.759592 457.866745 637.92628 457.866745 637.92628 447.752549 635.759592 447.752549"></polygon>
                <polygon id="Fill-26" fill="#FFFFFE" points="642.259655 457.866745 644.426342 457.866745 644.426342 447.752549 642.259655 447.752549"></polygon>
                <path d="M468.37143,498.237556 L466.843193,496.700921 C479.49737,484.10658 500.260736,466.860432 513.816977,459.706806 L514.828098,461.624891 C501.458192,468.67882 480.914384,485.753749 468.37143,498.237556" id="Fill-27" fill="#17293D"></path>
                <path d="M521.148325,440.944973 C518.760636,442.686059 514.036535,446.124163 511.538344,452.600138 C509.915495,456.809811 509.870717,460.583129 510.019496,462.812586 C520.514208,465.814335 536.272526,469.301565 555.690379,469.67868 C571.278973,469.982106 579.578831,470.143211 589.060977,465.644561 C612.238033,454.648263 625.229491,423.992859 618.852208,416.967827 C617.682196,415.6761 616.042736,415.374842 614.930503,415.23252 C604.093455,413.843263 587.742187,420.316349 574.932008,426.590762 C564.184516,431.855923 552.422292,434.580977 540.4629,434.997103 C534.147728,435.217448 527.025104,436.656554 521.148325,440.944973" id="Fill-28" fill="#17293D"></path>
                <path d="M247.739812,427.30887 C253.127642,434.229147 255.435164,443.827519 257.051513,450.549847 C258.202746,455.339641 258.788474,459.382429 259.106977,462.149384 C255.43733,466.635752 237.211155,488.052561 212.545585,486.452351 C202.313043,485.788426 195.5212,481.458828 183.900533,473.839949 C153.733743,454.060195 127.432324,421.672373 133.508438,413.305766 C134.641615,411.74529 136.619801,411.407187 137.934258,411.202013 C189.744811,403.09982 225.201207,414.638673 225.201207,414.638673 C238.459167,418.953822 243.789941,422.235156 247.739812,427.30887" id="Fill-29" fill="#17293D"></path>
                <path d="M287.445082,483.733077 C277.853879,474.703268 266.894051,467.120511 254.868936,461.19576 L255.82589,459.250944 C268.044563,465.271058 279.182058,472.97663 288.930707,482.155985 L287.445082,483.733077" id="Fill-30" fill="#17293D"></path>
                <path d="M224.448644,369.188367 C225.996381,373.817779 225.430876,379.281612 225.035816,383.10839 C224.753425,385.834888 224.313587,388.065069 223.968362,389.575696 C221.21378,391.250318 207.68715,399.11555 195.039473,393.710235 C189.792478,391.467773 187.029229,387.937919 182.34124,381.789933 C170.170234,365.82612 162.359326,343.961396 167.095705,340.695956 C167.978991,340.086937 169.078946,340.276217 169.807675,340.411314 C198.493895,345.750164 214.965775,358.368345 214.965775,358.368345 C221.124223,363.086618 223.314744,365.795055 224.448644,369.188367" id="Fill-31" fill="#17293D"></path>
                <path d="M234.41974,406.36815 C231.07943,399.89651 226.758333,393.92769 221.577061,388.627129 L223.126965,387.111444 C228.45846,392.566608 232.905225,398.710982 236.345203,405.373347 L234.41974,406.36815" id="Fill-32" fill="#17293D"></path>
                <path d="M579.664776,311.541065 C579.664776,404.403107 492.92361,479.68162 385.923194,479.68162 C278.922056,479.68162 192.18089,404.403107 192.18089,311.541065 C192.18089,218.680468 278.922056,143.401955 385.923194,143.401955 C492.92361,143.401955 579.664776,218.680468 579.664776,311.541065" id="Fill-33" fill="#7C109A"></path>
                <path d="M511.182285,215.113769 L543.676097,149.301421 C545.31628,145.978907 541.148295,141.443413 536.36786,141.349496 C511.753569,140.864737 452.994449,143.502374 435.841507,178.243191 C486.57666,203.307613 511.182285,215.113769 511.182285,215.113769" id="Fill-34" fill="#7C109A"></path>
                <path d="M524.144132,246.094995 C524.144132,251.514759 519.751534,255.908654 514.333371,255.908654 C508.91593,255.908654 504.523332,251.514759 504.523332,246.094995 C504.523332,240.675231 508.91593,236.281335 514.333371,236.281335 C519.751534,236.281335 524.144132,240.675231 524.144132,246.094995" id="Fill-35" fill="#17293D"></path>
                <path d="M176.182792,303.258261 C172.507368,303.258261 168.795832,302.626124 165.20852,301.316335 C152.393286,296.639965 143.921538,284.330989 144.127373,270.688384 L144.138929,270.452145 C144.101373,259.732543 150.827493,250.115388 160.923534,246.482947 C171.076632,242.830999 182.456074,246.014081 189.239973,254.406696 C190.493763,255.957058 190.25326,258.231307 188.702634,259.48619 C187.152008,260.739628 184.877709,260.500499 183.623919,258.948693 C178.770539,252.945195 170.630294,250.669501 163.36828,253.281131 C156.105544,255.894206 151.280331,262.836156 151.361942,270.556177 L151.364109,270.729563 L151.347498,270.920288 C151.24133,281.441941 157.792671,290.919665 167.683599,294.52971 C177.61425,298.154204 188.774857,295.084546 195.458366,286.894215 C196.719378,285.349633 198.995122,285.120619 200.53997,286.379113 C202.084818,287.640498 202.315209,289.916915 201.053475,291.461497 C194.843749,299.073874 185.634605,303.258261 176.182792,303.258261" id="Fill-36" fill="#475B99"></path>
                <path d="M493.053611,319.636756 C493.053611,382.755116 434.095156,433.921387 361.367403,433.921387 C288.638205,433.921387 229.680472,382.755116 229.680472,319.636756 C229.680472,256.519118 288.638205,205.352125 361.367403,205.352125 C434.095156,205.352125 493.053611,256.519118 493.053611,319.636756" id="Fill-37" fill="#17293D"></path>
                <polyline id="Fill-38" fill="#7C109A" points="210.725568 383.419041 278.105937 495.3933 328.777534 495.3933 333.53558 448.24092 210.725568 383.419041"></polyline>
                <polyline id="Fill-39" fill="#7C109A" points="513.611142 422.714135 484.144192 495.402692 440.425495 495.402692 426.943643 446.314166 513.611142 422.714135"></polyline>
                <path d="M566.900098,251.396278 C566.900098,251.396278 583.360423,286.27147 615.038838,290.249238 C620.231665,290.900881 624.073924,295.41398 624.073924,300.649521 L624.073924,325.767403 C624.073924,327.394344 623.698365,328.996721 622.976136,330.450998 C616.483296,343.423177 580.889677,408.575212 504.523332,444.086876 L566.900098,251.396278" id="Fill-40" fill="#7C109A"></path>
                <path d="M215.812228,37.5771264 C215.812228,58.2505422 199.057956,75.0090418 178.391369,75.0090418 C157.723337,75.0090418 140.969787,58.2505422 140.969787,37.5771264 C140.969787,16.9037106 157.723337,0.144488508 178.391369,0.144488508 C199.057956,0.144488508 215.812228,16.9037106 215.812228,37.5771264" id="Fill-41" fill="#CC0033"></path>
                <path d="M178.391369,11.9557016 C164.267455,11.9557016 152.777512,23.44904 152.777512,37.5771264 C152.777512,51.7044903 164.267455,63.1985511 178.391369,63.1985511 C192.51456,63.1985511 204.004503,51.7044903 204.004503,37.5771264 C204.004503,23.44904 192.51456,11.9557016 178.391369,11.9557016 Z M178.391369,66.8107639 C162.276269,66.8107639 149.166366,53.6962644 149.166366,37.5771264 C149.166366,21.4572659 162.276269,8.34348892 178.391369,8.34348892 C194.505746,8.34348892 207.615649,21.4572659 207.615649,37.5771264 C207.615649,53.6962644 194.505746,66.8107639 178.391369,66.8107639 L178.391369,66.8107639 Z" id="Fill-42" fill="#FFFFFE"></path>
                <path d="M182.509519,44.831172 C182.509519,43.72439 182.192461,42.8220592 181.556899,42.1263471 C180.92206,41.42919 179.832938,40.7804366 178.289534,40.1793644 C175.258339,39.0725824 173.007872,37.8400955 171.540303,36.4804586 C170.072011,35.1208217 169.337504,33.2056266 169.337504,30.7327057 C169.337504,28.4375058 170.072011,26.5562654 171.540303,25.0875397 C173.007872,23.618814 174.984614,22.7547727 177.470526,22.4954159 L177.470526,18.0899613 L180.727058,18.0899613 L180.727058,22.5358727 C183.131359,22.8920368 185.019266,23.8955095 186.391501,25.5484581 C187.764459,27.2014066 188.436854,29.3463385 188.409409,31.9832538 L188.34802,32.0851182 L182.509519,32.0851182 C182.509519,30.4733489 182.178738,29.2300253 181.516454,28.3558698 C180.85417,27.4817143 179.949217,27.0446366 178.801595,27.0446366 C177.62725,27.0446366 176.753353,27.3820172 176.179903,28.0589459 C175.606453,28.7344297 175.319728,29.6331482 175.319728,30.7529341 C175.319728,31.8185369 175.623064,32.6825782 176.231181,33.345058 C176.838576,34.0075378 177.955142,34.6606258 179.580158,35.3021548 C182.598353,36.4912952 184.834375,37.7613492 186.289667,39.1137617 C187.743514,40.4661741 188.470799,42.3582511 188.470799,44.7899927 C188.470799,47.1668287 187.739903,49.0654077 186.278833,50.4864522 C184.817764,51.9074967 182.830189,52.7476973 180.317554,53.0063318 L180.317554,57.0635691 L177.061023,57.0635691 L177.061023,53.0265601 C174.50722,52.7679257 172.396867,51.8627052 170.730684,50.3123435 C169.064501,48.7612594 168.259216,46.4841205 168.313383,43.4787595 L168.35455,43.3761727 L174.193051,43.3761727 C174.193051,45.2061196 174.612666,46.5180753 175.452618,47.3098723 C176.292571,48.1023918 177.360748,48.4990127 178.658593,48.4990127 C179.90155,48.4990127 180.85417,48.1674116 181.516454,47.5049318 C182.178738,46.842452 182.509519,45.9509579 182.509519,44.831172" id="Fill-43" fill="#FFFFFE"></path>
                <path d="M665.277098,223.545396 C665.277098,242.771759 649.698615,258.358457 630.472875,258.358457 C611.255079,258.358457 595.672985,242.771759 595.672985,223.545396 C595.672985,204.317588 611.255079,188.731612 630.472875,188.731612 C649.698615,188.731612 665.277098,204.317588 665.277098,223.545396" id="Fill-44" fill="#CC0033"></path>
                <path d="M630.472875,199.842778 C617.407749,199.842778 606.78087,210.475688 606.78087,223.545396 C606.78087,236.615104 617.407749,247.247291 630.472875,247.247291 C643.545222,247.247291 654.169213,236.615104 654.169213,223.545396 C654.169213,210.475688 643.545222,199.842778 630.472875,199.842778 Z M630.472875,250.859503 C615.421619,250.859503 603.169724,238.606155 603.169724,223.545396 C603.169724,208.483914 615.421619,196.230566 630.472875,196.230566 C645.531353,196.230566 657.780359,208.483914 657.780359,223.545396 C657.780359,238.606155 645.531353,250.859503 630.472875,250.859503 L630.472875,250.859503 Z" id="Fill-45" fill="#FFFFFE"></path>
                <path d="M634.307912,230.291564 C634.307912,229.262084 634.011798,228.42405 633.41957,227.775297 C632.827342,227.127988 631.816221,226.524749 630.378985,225.964856 C627.562291,224.93682 625.467827,223.789581 624.102814,222.526029 C622.737801,221.261755 622.058905,219.479489 622.058905,217.179955 C622.058905,215.045137 622.737801,213.294659 624.102814,211.929965 C625.467827,210.563826 627.309511,209.76047 629.620644,209.519174 L629.620644,205.42148 L632.646785,205.42148 L632.646785,209.556741 C634.885695,209.886897 636.640712,210.820293 637.919057,212.357651 C639.190181,213.895008 639.81852,215.890395 639.796853,218.342365 L639.739075,218.437005 L634.307912,218.437005 C634.307912,216.937936 633.997353,215.782751 633.383458,214.96928 C632.769563,214.156533 631.924555,213.749075 630.855656,213.749075 C629.76509,213.749075 628.956194,214.06406 628.421744,214.692585 C627.887294,215.321832 627.62007,216.156976 627.62007,217.199461 C627.62007,218.189929 627.901739,218.993285 628.465078,219.609529 C629.035639,220.225772 630.068426,220.832624 631.585108,221.429362 C634.387357,222.534699 636.467377,223.716615 637.825168,224.974387 C639.175736,226.231437 639.854631,227.99203 639.854631,230.253275 C639.854631,232.463227 639.168514,234.230321 637.810723,235.551668 C636.452932,236.872293 634.604026,237.653976 632.271225,237.895272 L632.271225,241.669312 L629.237863,241.669312 L629.237863,237.914056 C626.861729,237.67276 624.904488,236.831114 623.351695,235.389119 C621.798903,233.947124 621.055007,231.828922 621.105563,229.033069 L621.141674,228.938429 L626.572837,228.938429 C626.572837,230.640504 626.962841,231.859987 627.742849,232.597601 C628.522856,233.334492 629.519532,233.702216 630.725655,233.702216 C631.881222,233.702216 632.769563,233.395177 633.383458,232.778211 C633.997353,232.161968 634.307912,231.333326 634.307912,230.291564" id="Fill-46" fill="#FFFFFE"></path>
                <polyline id="Fill-47" fill="#475B99" points="167.18165 101.842003 146.37495 129.120711 129.334675 121.744572 167.18165 101.842003"></polyline>
                <polyline id="Fill-48" fill="#CDCDD5" points="167.18165 101.842003 146.37495 129.120711 157.988395 143.612186 167.18165 101.842003"></polyline>
                <path d="M317.54976,174.576795 C328.661978,169.505249 354.023054,160.385857 388.011881,163.23806 C392.601647,155.932721 395.265228,147.293753 395.265228,138.028427 C395.265228,111.815322 374.022302,90.5661195 347.817662,90.5661195 C321.613021,90.5661195 300.369373,111.815322 300.369373,138.028427 C300.369373,152.731578 307.055048,165.871363 317.54976,174.576795" id="Fill-49" fill="#CC0033"></path>
                <path d="M331.354448,170.075256 C319.29611,163.86514 311.805149,151.585062 311.805149,138.028427 C311.805149,118.16487 327.959971,102.004552 347.817662,102.004552 C367.675352,102.004552 383.830174,118.16487 383.830174,138.028427 C383.830174,147.650639 380.084694,156.696342 373.282017,163.500306 L370.728937,160.946472 C376.849107,154.825216 380.219028,146.685456 380.219028,138.028427 C380.219028,120.156644 365.684166,105.616765 347.817662,105.616765 C329.951157,105.616765 315.416295,120.156644 315.416295,138.028427 C315.416295,150.226147 322.15686,161.275183 333.008353,166.863999 L331.354448,170.075256" id="Fill-50" fill="#FFFFFE"></path>
                <path d="M310.585304,180.347666 L308.495895,177.401546 C309.725852,176.526668 339.332191,156.049756 400.443611,161.686976 L400.112108,165.283295 C340.461035,159.778282 310.877085,180.141048 310.585304,180.347666" id="Fill-51" fill="#FFFFFE"></path>
                <path d="M271.321316,13.667168 L267.026942,13.667168 L267.026942,24.3296975 C267.026942,25.812872 268.228731,27.0150164 269.710745,27.0150164 L271.321316,27.0150164 L271.321316,13.667168" id="Fill-52" fill="#17293D"></path>
                <path d="M242.838043,111.600034 L249.350383,181.013758 L235.659085,246.094995 L241.170416,246.094995 C241.170416,246.094995 262.159117,201.497894 268.879459,186.505767 C270.890145,182.018676 271.878155,178.980805 271.972045,174.064584 L272.43716,143.154157 L277.652377,143.154157 L286.241848,179.66857 L294.516428,246.094995 L300.027036,246.094995 L308.08928,183.78866 C308.419339,181.050603 308.44895,178.284371 308.178114,175.539811 L303.144177,111.600034 L242.838043,111.600034" id="Fill-53" fill="#DE4C61"></path>
                <polyline id="Fill-54" fill="#FFFFFE" points="251.470126 252.242981 246.31991 252.242981 241.169693 250.582086 241.169693 246.094995 246.31991 248.587422 251.470126 249.80257 251.470126 252.242981"></polyline>
                <polyline id="Fill-55" fill="#FFFFFE" points="239.567789 252.242981 235.661974 252.242981 235.661974 246.094995 241.169693 246.094995 241.169693 250.582086 239.567789 252.242981"></polyline>
                <polyline id="Fill-56" fill="#FFFFFE" points="310.327468 252.242981 305.177252 252.242981 300.027036 250.582086 300.027036 246.094995 305.177252 248.587422 310.327468 249.80257 310.327468 252.242981"></polyline>
                <polyline id="Fill-57" fill="#FFFFFE" points="298.42441 252.242981 294.519317 252.242981 294.519317 246.094995 300.027036 246.094995 300.027036 250.582086 298.42441 252.242981"></polyline>
                <path d="M276.972759,31.1748406 L272.258047,31.1748406 C270.178027,31.1748406 268.493067,29.4886597 268.493067,27.4087476 L268.493067,13.6252663 L283.697435,13.6252663 L283.697435,24.4474556 C283.697435,28.1629776 280.686462,31.1748406 276.972759,31.1748406" id="Fill-58" fill="#8B572A"></path>
                <path d="M191.434105,81.092008 L186.508502,78.3972973 C185.22149,77.697973 184.284759,76.4936612 183.924366,75.0733392 L182.7948,70.6259829 C182.721855,70.3377283 183.070691,70.1339995 183.285193,70.3384508 L187.297176,74.1645065 C187.714625,74.5625723 188.319853,74.6933344 188.864414,74.5018872 C190.084259,74.0727563 191.437716,74.2772075 192.476282,75.0487762 L194.165576,76.3014915 L191.434105,81.092008" id="Fill-59" fill="#8B572A"></path>
                <path d="M239.171285,126.105958 L270.097138,126.105958 L272.99111,113.468993 L277.463153,126.105958 L306.811657,126.105958 L298.318964,49.3225972 C297.773681,44.3926493 293.609308,40.661956 288.651205,40.661956 L257.331737,40.661956 C252.373634,40.661956 248.208539,44.3926493 247.663978,49.3225972 L239.171285,126.105958" id="Fill-60" fill="#17293D"></path>
                <polyline id="Fill-61" fill="#FFFFFE" points="280.295013 40.661956 279.296893 59.7705613 267.887839 40.661956 280.295013 40.661956"></polyline>
                <polyline id="Fill-62" fill="#8B572A" points="271.600097 27.0114042 278.714776 25.385186 280.295013 40.661956 276.689645 42.0114787 267.887839 40.661956 271.600097 27.0114042"></polyline>
                <path d="M234.972967,93.8474535 L262.809123,55.7046547 L248.933657,45.4849825 L225.604933,84.4520883 L193.877406,74.2353059 L190.691653,82.3584498 L223.98064,97.2711088 C227.983956,99.0642111 232.695057,97.5969303 234.972967,93.8474535" id="Fill-63" fill="#17293D"></path>
                <path d="M339.998087,85.5393643 L345.530362,86.4900987 C346.97482,86.7335618 348.251721,87.5687054 349.053396,88.7946904 L351.565309,92.635195 C351.727088,92.8829928 351.463474,93.1893084 351.194083,93.0657707 L346.158701,90.7488975 C345.634363,90.5076017 345.019024,90.5812908 344.566186,90.9388999 C343.551454,91.7408111 342.204497,91.9864416 340.972374,91.5941553 L338.968188,90.9569609 L339.998087,85.5393643" id="Fill-64" fill="#8B572A"></path>
                <polyline id="Fill-65" fill="#17293D" points="298.048851 98.0318408 283.048151 55.7046547 297.955683 47.5518906 308.361561 83.7975553 339.998087 85.5393643 338.968188 90.9569609 298.048851 98.0318408"></polyline>
                <path d="M276.747424,13.1108873 C276.747424,15.6206526 278.781943,17.6557733 281.290967,17.6557733 C283.800714,17.6557733 285.835233,15.6206526 285.835233,13.1108873 C285.835233,10.6003994 283.800714,8.56527878 281.290967,8.56527878 C278.781943,8.56527878 276.747424,10.6003994 276.747424,13.1108873" id="Fill-66" fill="#17293D"></path>
                <path d="M267.026942,17.6557733 L280.907464,17.6557733 L280.907464,10.5982321 L270.593309,10.5982321 C268.62379,10.5982321 267.026942,12.1955526 267.026942,14.1649309 L267.026942,17.6557733" id="Fill-67" fill="#17293D"></path>
                <path d="M267.717393,23.1788465 C267.717393,23.9836475 268.369566,24.6367356 269.174129,24.6367356 C269.979414,24.6367356 270.631587,23.9836475 270.631587,23.1788465 C270.631587,22.3740455 269.979414,21.7216799 269.174129,21.7216799 C268.369566,21.7216799 267.717393,22.3740455 267.717393,23.1788465" id="Fill-68" fill="#8B572A"></path>
                <polygon id="Fill-69" fill="#CDCDD5" points="303.404902 495.451095 305.997705 495.451095 305.997705 261.931658 303.404902 261.931658"></polygon>
                <polygon id="Fill-70" fill="#CDCDD5" points="229.444303 478.696208 232.037828 478.696208 232.037828 261.931658 229.444303 261.931658"></polygon>
                <polygon id="Fill-71" fill="#ED9741" points="215.87434 297.5553 293.201248 297.5553 293.201248 294.961008 215.87434 294.961008"></polygon>
                <polygon id="Fill-72" fill="#ED9741" points="200.538526 341.570111 278.105937 341.570111 278.105937 338.97582 200.538526 338.97582"></polygon>
                <polygon id="Fill-73" fill="#ED9741" points="183.010746 385.584923 262.731123 385.584923 262.731123 382.990632 183.010746 382.990632"></polygon>
                <polygon id="Fill-74" fill="#ED9741" points="168.404384 429.599013 247.066694 429.599013 247.066694 427.006166 168.404384 427.006166"></polygon>
                <polyline id="Fill-75" fill="#ED9741" points="143.899871 496.295631 141.465236 495.402692 230.316034 253.016717 309.10979 253.016717 226.31344 496.267455 223.859305 495.431589 305.487811 255.610286 232.127384 255.610286 143.899871 496.295631"></polyline>
                <path d="M308.924899,261.93238 L223.883139,261.93238 C222.821462,261.93238 221.961287,261.071951 221.961287,260.009961 L221.961287,254.165401 C221.961287,253.104132 222.821462,252.242981 223.883139,252.242981 L308.924899,252.242981 C309.986576,252.242981 310.846751,253.104132 310.846751,254.165401 L310.846751,260.009961 C310.846751,261.071951 309.986576,261.93238 308.924899,261.93238" id="Fill-76" fill="#ED9741"></path>
                <path d="M460.369853,195.288501 L476.742788,178.489544 L475.203718,175.000869 C474.690935,173.838459 473.333144,173.312521 472.171077,173.824733 L436.565902,189.53858 C435.403836,190.051515 434.877331,191.409707 435.390113,192.572839 L436.929184,196.061514 L460.369853,195.288501" id="Fill-77" fill="#FFFFFE"></path>
                <path d="M462.49754,200.11225 L439.056148,200.885263 L447.085892,219.087203 C447.598675,220.249613 448.956466,220.776274 450.11781,220.263339 L485.722985,204.549492 C486.885774,204.036557 487.412279,202.678365 486.899497,201.515955 L478.869753,183.313293 L462.49754,200.11225" id="Fill-78" fill="#FFFFFE"></path>
                <path d="M354.236834,386.464858 L360.203169,420.516465 C360.277559,420.940539 360.305726,421.37256 360.28767,421.802413 L357.395865,489.80015 L362.43558,489.80015 L373.731244,422.589875 C373.994135,421.131986 374.158803,419.658203 374.223804,418.177196 L377.43339,387.440878 L354.236834,386.464858" id="Fill-79" fill="#8B572A"></path>
                <path d="M339.106134,422.501015 L326.472901,489.80015 L331.512616,489.80015 L352.811154,422.789992 C353.351381,421.204953 353.657607,419.550559 353.72044,417.878105 L355.013231,387.987767 L331.964009,387.370801 L339.071467,420.054824 C339.246246,420.859625 339.257802,421.691879 339.106134,422.501015" id="Fill-80" fill="#8B572A"></path>
                <path d="M359.329272,272.136159 L353.987665,272.136159 C352.262982,272.136159 350.864746,270.73751 350.864746,269.011595 L350.864746,255.926715 L364.908492,255.926715 L364.908492,266.55529 C364.908492,269.637952 362.410302,272.136159 359.329272,272.136159" id="Fill-81" fill="#8B572A"></path>
                <polyline id="Fill-82" fill="#8B572A" points="360.305726 266.788639 353.734163 268.290597 350.305019 280.899387 361.765351 280.899387 360.305726 266.788639"></polyline>
                <path d="M389.418783,400.569104 L376.433825,333.392784 C376.433825,308.186042 382.597329,313.522002 380.995424,301.197855 C380.995424,301.197855 377.360445,286.199948 373.080515,283.349912 C370.577991,281.683237 367.589407,280.899387 364.582767,280.899387 L347.283934,280.899387 C344.821855,280.899387 341.757437,281.687572 338.986243,282.981466 C335.130984,284.782515 333.206966,289.166297 334.440533,293.239428 C337.42334,303.087765 343.201895,323.264862 342.737502,330.329628 L321.179684,400.569104 L389.418783,400.569104" id="Fill-83" fill="#D10074"></path>
                <path d="M361.766073,260.152282 L350.864746,260.152282 L355.834405,249.848806 L361.766073,249.848806 C364.610212,249.848806 366.916289,252.154843 366.916289,255.000544 C366.916289,257.845523 364.610212,260.152282 361.766073,260.152282" id="Fill-84" fill="#475B99"></path>
                <path d="M350.996914,267.810895 L345.456694,267.810895 L345.456694,259.171927 C345.456694,254.023079 349.629735,249.848806 354.777784,249.848806 L355.834405,249.848806 L355.834405,262.972698 C355.834405,265.64429 353.66844,267.810895 350.996914,267.810895" id="Fill-85" fill="#475B99"></path>
                <path d="M356.035185,264.031798 C356.035185,265.120519 355.153343,266.002622 354.064944,266.002622 C352.975822,266.002622 352.09398,265.120519 352.09398,264.031798 C352.09398,262.943077 352.975822,262.060253 354.064944,262.060253 C355.153343,262.060253 356.035185,262.943077 356.035185,264.031798" id="Fill-86" fill="#AC6D36"></path>
                <polyline id="Fill-87" fill="#D10074" points="432.922256 252.669944 404.589929 282.221457 370.314378 294.711766 364.582767 280.899387 398.237201 271.918704 427.996653 251.049506 432.922256 252.669944"></polyline>
                <path d="M432.922256,252.669944 L435.041999,249.017997 C435.720894,247.84764 435.880507,246.447547 435.481836,245.154375 L434.233824,241.102917 C434.153657,240.84067 433.780265,240.847895 433.709486,241.113031 L432.38564,246.060318 C432.247694,246.574697 431.832412,246.96915 431.311685,247.079684 C430.143118,247.328927 429.173887,248.141675 428.725383,249.249179 L427.996653,251.049506 L432.922256,252.669944" id="Fill-88" fill="#8B572A"></path>
                <polyline id="Fill-89" fill="#17293D" points="341.074208 495.3933 336.317607 495.3933 329.392151 493.153006 331.560283 489.713457 341.074208 494.291575 341.074208 495.3933"></polyline>
                <polyline id="Fill-90" fill="#17293D" points="330.080436 495.3933 326.472901 495.3933 326.472901 489.713457 331.560283 489.713457 329.392151 493.153006 330.080436 495.3933"></polyline>
                <polyline id="Fill-91" fill="#17293D" points="371.997171 495.3933 367.24057 495.3933 360.315115 493.153006 362.483969 489.713457 371.997171 494.291575 371.997171 495.3933"></polyline>
                <polyline id="Fill-92" fill="#17293D" points="361.003399 495.3933 357.395865 495.3933 357.395865 489.713457 362.483969 489.713457 360.315115 493.153006 361.003399 495.3933"></polyline>
                <path d="M380.452308,311.221023 L396.344238,312.410163 C395.260173,314.407717 395.344673,317.628366 396.531296,319.567401 L404.701152,332.615436 C405.214657,333.45347 404.720652,334.545803 403.752143,334.714132 L399.506158,335.448856 C398.944263,335.546386 398.380202,335.290641 398.082644,334.804437 L389.467172,321.02818 C388.733388,319.829648 380.452308,311.221023 380.452308,311.221023" id="Fill-93" fill="#FFFFFE"></path>
                <polyline id="Fill-94" fill="#ED9741" points="435.512892 277.675126 443.582359 324.300122 400.771503 317.907228 397.341637 298.091352 435.512892 277.675126"></polyline>
                <path d="M383.562949,302.800955 C379.981415,303.421533 377.580003,306.829295 378.200398,310.411887 L378.601957,312.733817 C379.222352,316.31641 382.628385,318.717809 386.210641,318.097953 L393.564378,316.824287 L400.771503,317.907228 L397.341637,298.091352 L390.917409,301.527289 L383.562949,302.800955" id="Fill-95" fill="#FFFFFE"></path>
                <polyline id="Fill-96" fill="#CDCDD5" points="445.126485 301.231087 444.764648 299.094825 466.965972 295.333789 467.327809 297.470051 445.126485 301.231087"></polyline>
                <polyline id="Fill-97" fill="#CDCDD5" points="442.467959 291.783706 441.269781 289.9776 454.558075 281.152964 455.756253 282.95907 442.467959 291.783706"></polyline>
                <polyline id="Fill-98" fill="#CDCDD5" points="462.613819 315.02974 444.926427 310.996343 445.408154 308.882476 463.095546 312.915873 462.613819 315.02974"></polyline>
                <path d="M389.192725,331.248575 L393.398266,331.613408 C394.745945,331.729722 396.081347,331.278195 397.081634,330.367195 L400.215387,327.513547 C400.418333,327.329324 400.252943,326.994111 399.983551,327.042514 L394.944558,327.94918 C394.42022,328.04382 393.887215,327.835756 393.565101,327.41096 C392.842872,326.459503 391.695249,325.928508 390.502127,325.993528 L388.562942,326.099727 L389.192725,331.248575" id="Fill-99" fill="#8B572A"></path>
                <path d="M347.827051,334.29078 L389.192725,331.248575 L388.562942,326.099727 L351.745866,321.963743 L345.897254,289.648166 L334.103252,291.497619 L339.167523,327.020841 C339.203634,331.592458 343.318896,335.0479 347.827051,334.29078" id="Fill-100" fill="#D10074"></path>
                <path d="M340.049365,319.697441 L341.150042,319.697441 C346.515482,319.697441 350.864746,315.34617 350.864746,309.979144 L350.864746,263.099125 L349.763347,263.099125 C344.398629,263.099125 340.049365,267.448952 340.049365,272.815977 L340.049365,319.697441" id="Fill-101" fill="#475B99"></path>
                <polygon id="Fill-102" fill="#CDCDD5" points="0.226825094 499.727955 793.956666 499.727955 793.956666 495.3933 0.226825094 495.3933"></polygon>
                <path d="M711.391429,266.575518 L702.768013,266.575518 L702.768013,258.057921 L713.514783,258.057921 L713.514783,264.451537 C713.514783,265.624784 712.561441,266.575518 711.391429,266.575518" id="Fill-103" fill="#222222"></path>
                <path d="M730.631614,345.053729 L727.338249,414.408213 L729.923829,489.114552 L724.297664,489.114552 L713.919231,414.407491 L710.929203,362.804865 L703.901913,362.804865 L695.466276,417.213458 L708.914183,489.114552 L703.29524,489.114552 L682.531152,420.182697 C681.715033,418.466173 681.288918,416.588545 681.288918,414.685631 L681.288918,345.053729 L730.631614,345.053729" id="Fill-104" fill="#17293D"></path>
                <polyline id="Fill-105" fill="#DE4C61" points="692.779584 495.3933 698.037412 495.3933 703.29524 493.696282 703.29524 489.114552 698.037412 491.660439 692.779584 492.901596 692.779584 495.3933"></polyline>
                <polyline id="Fill-106" fill="#DE4C61" points="704.927478 495.3933 708.914183 495.3933 708.914183 489.114552 703.29524 489.114552 703.29524 493.696282 704.927478 495.3933"></polyline>
                <polyline id="Fill-107" fill="#DE4C61" points="713.904787 495.3933 719.162615 495.3933 724.420443 493.696282 724.420443 489.114552 719.162615 491.660439 713.904787 492.901596 713.904787 495.3933"></polyline>
                <polyline id="Fill-108" fill="#DE4C61" points="726.059903 495.3933 730.046608 495.3933 730.046608 489.114552 724.420443 489.114552 724.420443 493.696282 726.059903 495.3933"></polyline>
                <path d="M628.963416,267.340585 L625.763941,264.175564 C624.637263,263.06517 624.023368,261.535759 624.081147,259.955777 L624.240037,255.007769 C624.254482,254.687004 624.673375,254.580805 624.832265,254.8575 L627.843961,260.025854 C628.161741,260.563352 628.746747,260.879781 629.367864,260.845827 C630.761766,260.766358 632.105113,261.385491 632.950121,262.495885 L634.322356,264.300547 L628.963416,267.340585" id="Fill-109" fill="#8B572A"></path>
                <path d="M734.777209,352.204466 L678.400001,352.204466 L678.400001,298.08196 C678.400001,289.646721 685.232289,282.808802 693.667926,282.808802 L719.509285,282.808802 C727.937699,282.808802 734.777209,289.646721 734.777209,298.08196 L734.777209,352.204466" id="Fill-110" fill="#DE4C61"></path>
                <path d="M702.573011,273.438723 L707.39028,273.438723 C709.513633,273.438723 711.232539,271.717142 711.232539,269.593883 L711.232539,255.520703 L695.704612,255.520703 L695.704612,266.570461 C695.704612,270.363285 698.781308,273.438723 702.573011,273.438723" id="Fill-111" fill="#8B572A"></path>
                <polyline id="Fill-112" fill="#8B572A" points="708.061953 269.187871 700.796328 267.527698 699.185757 283.125232 702.984682 291.111112 711.853656 283.125232 708.061953 269.187871"></polyline>
                <path d="M647.481371,301.207969 L628.963416,267.340585 L634.322356,264.300547 L656.047009,291.973709 L690.136225,283.227097 L687.637312,304.093405 L653.641986,304.638126 C651.121406,304.677861 648.774162,303.37024 647.481371,301.207969" id="Fill-113" fill="#DE4C61"></path>
                <path d="M707.996952,256.648436 L700.637437,256.648436 C696.917957,256.648436 693.899039,253.632238 693.899039,249.912381 L707.794728,250.735966 L707.996952,256.648436" id="Fill-114" fill="#222222"></path>
                <path d="M705.37526,259.272347 L696.130727,259.272347 C693.451257,259.272347 691.277347,257.097795 691.277347,254.416088 L691.277347,252.536293 L701.966339,252.536293 C703.844135,252.536293 705.37526,254.061369 705.37526,255.942609 L705.37526,259.272347" id="Fill-115" fill="#222222"></path>
                <path d="M713.514783,259.252841 L702.768013,259.252841 L702.768013,250.734521 L708.199176,250.734521 C711.138649,250.734521 713.514783,253.114247 713.514783,256.050976 L713.514783,259.252841" id="Fill-116" fill="#232323"></path>
                <path d="M712.221993,263.716813 C712.221993,264.690666 711.434763,265.479573 710.459754,265.479573 C709.491967,265.479573 708.697515,264.690666 708.697515,263.716813 C708.697515,262.743683 709.491967,261.954776 710.459754,261.954776 C711.434763,261.954776 712.221993,262.743683 712.221993,263.716813" id="Fill-117" fill="#8B572A"></path>
                <path d="M695.083495,363.27951 L691.327903,365.768324 C690.013446,366.64248 688.388431,366.9264 686.857305,366.551452 L682.047259,365.37965 C681.7367,365.303071 681.715033,364.868161 682.01837,364.766297 L687.695091,362.877109 C688.287319,362.680605 688.713434,362.169116 688.807324,361.553595 C689.01677,360.173729 689.89789,358.986756 691.154568,358.385684 L693.205699,357.410387 L695.083495,363.27951" id="Fill-118" fill="#8B572A"></path>
                <path d="M734.300538,294.285525 L713.724229,298.6852 L728.934375,331.285419 L693.205699,357.410387 L695.083495,363.27951 L737.926128,340.719074 C741.566163,338.781483 743.393403,334.600708 742.353393,330.61427 L734.300538,294.285525" id="Fill-119" fill="#DE4C61"></path>
                <polyline id="Fill-120" fill="#D10074" points="147.87502 286.853758 116.060104 306.500583 79.321751 299.346235 80.8998217 286.220899 115.449098 294.355602 145.228773 282.276362 147.87502 286.853758"></polyline>
                <polyline id="Fill-121" fill="#8B572A" points="95.6506299 423.547112 83.661626 423.547112 67.0604666 489.691783 72.1976826 489.691783 95.6506299 423.547112"></polyline>
                <polyline id="Fill-122" fill="#8B572A" points="99.9890605 423.547112 98.5807136 489.691783 103.71793 489.691783 111.064445 423.547112 99.9890605 423.547112"></polyline>
                <polyline id="Fill-123" fill="#17293D" points="81.944165 495.3933 77.0951185 495.3933 70.0360507 493.110382 72.246072 489.603645 81.944165 494.269902 81.944165 495.3933"></polyline>
                <polyline id="Fill-124" fill="#17293D" points="70.7373353 495.3933 67.0604666 495.3933 67.0604666 489.603645 72.246072 489.603645 70.0360507 493.110382 70.7373353 495.3933"></polyline>
                <polyline id="Fill-125" fill="#17293D" points="113.464412 495.3933 108.615366 495.3933 101.556298 493.110382 103.766319 489.603645 113.464412 494.269902 113.464412 495.3933"></polyline>
                <polyline id="Fill-126" fill="#17293D" points="102.257582 495.3933 98.5807136 495.3933 98.5807136 489.603645 103.766319 489.603645 101.556298 493.110382 102.257582 495.3933"></polyline>
                <polyline id="Fill-127" fill="#8B572A" points="111.064445 423.547112 111.93112 393.528902 96.4436376 393.528902 99.9890605 423.547112 111.064445 423.547112"></polyline>
                <polyline id="Fill-128" fill="#8B572A" points="95.6506299 423.547112 95.8658542 393.528902 80.8990995 393.528902 83.661626 423.547112 95.6506299 423.547112"></polyline>
                <path d="M99.9067264,267.824622 L95.467906,267.824622 C93.510665,267.824622 91.9232053,266.236693 91.9232053,264.278874 L91.9232053,251.301638 L106.238509,251.301638 L106.238509,261.490245 C106.238509,264.988312 103.40376,267.824622 99.9067264,267.824622" id="Fill-129" fill="#8B572A"></path>
                <polyline id="Fill-130" fill="#8B572A" points="101.546909 262.37307 94.8482334 263.903926 91.3533665 276.756901 103.035423 276.756901 101.546909 262.37307"></polyline>
                <path d="M112.617237,415.196398 L97.2438675,415.196398 L91.9232053,402.431561 L87.6555532,415.196398 L81.77083,415.196398 L71.7065668,353.859582 C70.916769,349.048114 70.7185573,344.159346 71.1150611,339.300197 L75.3921022,286.845089 C75.5878263,284.43791 76.5722246,282.162216 78.1921846,280.371281 C80.2729268,278.069579 83.2304552,276.756901 86.3331516,276.756901 L105.540836,276.756901 C107.787691,276.756901 109.982545,277.429495 111.843008,278.68799 C114.830147,280.709384 116.668221,284.039845 116.784499,287.645555 L117.906844,322.362532 L122.279219,345.321756 L112.617237,415.196398" id="Fill-131" fill="#D10074"></path>
                <path d="M103.035423,245.105971 L91.9232053,245.105971 C85.8348135,245.105971 80.8990995,250.043143 80.8990995,256.133334 L80.8990995,294.72477 C86.9874912,294.72477 91.9232053,289.787597 91.9232053,283.696684 L91.9232053,255.608841 L103.035423,255.608841 C105.934451,255.608841 108.285307,253.25729 108.285307,250.357406 C108.285307,247.456799 105.934451,245.105971 103.035423,245.105971" id="Fill-132" fill="#17293D"></path>
                <path d="M91.4992568,263.414832 L86.4111524,263.414832 L86.4111524,252.833939 L96.9889206,252.833939 L96.9889206,257.924269 C96.9889206,260.95636 94.5311748,263.414832 91.4992568,263.414832" id="Fill-133" fill="#17293D"></path>
                <path d="M97.1940337,259.562769 C97.1940337,260.67244 96.2948584,261.571881 95.1847921,261.571881 C94.0754482,261.571881 93.1762729,260.67244 93.1762729,259.562769 C93.1762729,258.453097 94.0754482,257.552934 95.1847921,257.552934 C96.2948584,257.552934 97.1940337,258.453097 97.1940337,259.562769" id="Fill-134" fill="#8B572A"></path>
                <path d="M259.875429,284.413347 L151.053551,301.555464 C148.614583,301.939081 146.291894,300.055673 145.865056,297.347236 L136.107018,235.362388 C135.680181,232.653951 137.312419,230.146353 139.751387,229.762736 L248.573265,212.62062 C251.012232,212.23628 253.335644,214.12041 253.761759,216.828847 L263.519797,278.813695 C263.945912,281.522132 262.314396,284.029008 259.875429,284.413347" id="Fill-135" fill="#CDCDD5"></path>
                <polyline id="Fill-136" fill="#FFFFFE" points="181.443509 272.646203 153.177627 277.098617 152.251729 271.2136 180.516889 266.761186 181.443509 272.646203"></polyline>
                <polyline id="Fill-137" fill="#DE4C61" points="217.859025 278.568787 154.968755 288.475642 154.042857 282.590625 216.933127 272.68377 217.859025 278.568787"></polyline>
                <polyline id="Fill-138" fill="#FFFFFE" points="216.067897 267.191762 187.802737 271.644175 186.876839 265.759158 215.141999 261.306745 216.067897 267.191762"></polyline>
                <polyline id="Fill-139" fill="#FFFFFE" points="250.693007 261.737321 222.427847 266.189734 221.501227 260.30544 249.767109 255.852304 250.693007 261.737321"></polyline>
                <polyline id="Fill-140" fill="#17293D" points="245.690848 229.960686 188.806635 238.92114 188.312631 235.782128 245.196843 226.821673 245.690848 229.960686"></polyline>
                <polyline id="Fill-141" fill="#17293D" points="247.049361 238.590984 190.165148 247.551439 189.671144 244.413149 246.555356 235.452694 247.049361 238.590984"></polyline>
                <path d="M165.700358,255.827741 L152.038671,257.979897 C151.030439,258.138834 150.040985,257.173651 149.82865,255.822684 L148.065689,244.626992 C147.853353,243.276747 148.498304,242.054374 149.506536,241.895436 L163.168222,239.74328 C164.176454,239.584343 165.165908,240.550248 165.378244,241.899771 L167.141205,253.096186 C167.35354,254.445708 166.70859,255.669526 165.700358,255.827741" id="Fill-142" fill="#FFFFFE"></path>
                <polyline id="Fill-143" fill="#CDCDD5" points="155.092978 257.49875 152.560843 241.41429 153.753965 241.226455 156.286823 257.310915 155.092978 257.49875"></polyline>
                <polyline id="Fill-144" fill="#CDCDD5" points="161.452928 256.496723 158.920793 240.412262 160.113915 240.225149 162.646051 256.308888 161.452928 256.496723"></polyline>
                <polyline id="Fill-145" fill="#CDCDD5" points="149.10281 251.214945 148.91503 250.020748 154.214748 249.186327 154.402527 250.379802 149.10281 251.214945"></polyline>
                <polyline id="Fill-146" fill="#CDCDD5" points="161.468817 249.266518 161.281038 248.073043 166.580755 247.238621 166.768535 248.432096 161.468817 249.266518"></polyline>
                <path d="M177.19319,299.916242 L181.468065,299.43076 C182.838134,299.274713 184.08109,298.553715 184.896487,297.441154 L187.451733,293.957536 C187.616402,293.732134 187.384566,293.430875 187.124564,293.534184 L182.27335,295.458049 C181.768512,295.657443 181.193618,295.557746 180.78628,295.198692 C179.872661,294.393891 178.618871,294.0948 177.440193,294.401115 L175.524119,294.898878 L177.19319,299.916242" id="Fill-147" fill="#8B572A"></path>
                <path d="M177.144801,300.114914 L143.356755,308.816734 C141.669627,309.250922 139.881388,309.043581 138.337984,308.235168 L107.581133,292.118197 L111.843008,278.68799 L143.625424,297.681005 L175.524119,294.898878 L177.144801,300.114914" id="Fill-148" fill="#D10074"></path>
                <path d="M515.712107,441.759888 C513.683365,445.531038 509.850495,448.454763 507.166691,450.501443 C505.254228,451.960777 503.564212,453.019155 502.391312,453.70692 C499.664175,452.951246 486.506604,449.02766 482.359564,437.688924 C480.639214,432.985101 481.234331,429.096193 482.346564,422.40204 C485.234758,405.021517 494.516848,386.884597 499.451117,387.9502 C500.371237,388.148872 500.912187,388.965954 501.26319,389.513566 C515.093156,411.070529 516.927618,429.19011 516.927618,429.19011 C517.613736,435.965899 517.199176,438.994378 515.712107,441.759888" id="Fill-149" fill="#17293D"></path>
                <path d="M499.857732,471.1633 L497.813824,470.440857 C499.938622,464.426523 501.154133,458.088534 501.427858,451.601723 L503.592379,451.693473 C503.309987,458.395573 502.053309,464.945959 499.857732,471.1633" id="Fill-150" fill="#17293D"></path>
                <path d="M366.717676,24.8946476 C364.76188,24.8635825 362.839306,24.8484112 360.951399,24.8462439 L360.953565,22.6789163 C362.852306,22.6810836 364.785713,22.6962549 366.752343,22.7273199 L366.717676,24.8946476 Z M349.428233,25.0059037 L349.365399,22.840021 C351.251861,22.7851153 353.184546,22.7432137 355.159121,22.7157609 L355.189455,24.8830885 C353.225713,24.9105413 351.304584,24.952443 349.428233,25.0059037 Z M378.242287,25.2500893 C376.295879,25.1612289 374.37475,25.0882622 372.481065,25.0297443 L372.548232,22.8638616 C374.452028,22.9223794 376.383991,22.9953461 378.341955,23.0856514 L378.242287,25.2500893 Z M337.914455,25.5130584 L337.785899,23.3500654 C339.653583,23.2388093 341.584102,23.1383897 343.574565,23.0509742 L343.669177,25.2168569 C341.690992,25.3028276 339.771307,25.4032471 337.914455,25.5130584 Z M389.749564,25.9530259 C387.811823,25.8042027 385.895027,25.6734406 383.999176,25.5578498 L384.131343,23.3948568 C386.037306,23.5104476 387.965658,23.6426546 389.914955,23.7914778 L389.749564,25.9530259 Z M326.423067,26.379267 L326.225899,24.2198862 C328.058194,24.053002 329.985102,23.8904524 332.002288,23.7387395 L332.164789,25.90101 C330.159881,26.0512781 328.243807,26.2116603 326.423067,26.379267 Z M401.229397,27.0056247 C399.300322,26.7990061 397.388582,26.6090037 395.494175,26.4356175 L395.692066,24.2769592 C397.597306,24.4517903 399.520602,24.6425151 401.46051,24.8505786 L401.229397,27.0056247 Z M314.972124,27.6327048 L314.69551,25.4834382 C316.576195,25.24142 318.513936,25.0109608 320.45601,24.7985627 L320.690735,26.9536088 C318.763105,27.1638396 316.839086,27.3928539 314.972124,27.6327048 Z M412.668062,28.4179998 C410.749821,28.1506961 408.844581,27.9000085 406.953785,27.6666596 L407.219565,25.5159481 C409.121194,25.7514644 411.037991,26.0028744 412.967065,26.271623 L412.668062,28.4179998 Z M303.617237,29.384628 L303.191844,27.259202 C303.274901,27.2425858 305.258142,26.8481322 308.946566,26.2882392 L309.271569,28.4317262 C305.639479,28.9822275 303.63746,29.3810157 303.617237,29.384628 Z M424.054004,30.1973758 C422.148042,29.8672196 420.25219,29.5551244 418.367894,29.2618127 L418.702286,27.1197706 C420.598138,27.415972 422.505545,27.7295121 424.423064,28.0618357 L424.054004,30.1973758 Z M435.37278,32.3502546 C433.520984,31.9659152 431.620077,31.5880777 429.722781,31.2268564 L430.127229,29.0970958 C432.036803,29.4604844 433.949988,29.8412116 435.81334,30.2284408 L435.37278,32.3502546 Z M446.610665,34.8881952 C444.773314,34.438836 442.88613,33.9959787 441.003278,33.57046 L441.47995,31.4565932 C443.375801,31.8842792 445.274542,32.3307486 447.124893,32.7829977 L446.610665,34.8881952 Z M457.750328,37.8184222 C455.918755,37.3011533 454.049626,36.7911089 452.193497,36.3034602 L452.744558,34.2069319 C454.612964,34.6981929 456.495094,35.2118495 458.338945,35.7327306 L457.750328,37.8184222 Z M468.773712,41.1496048 C466.982583,40.5709283 465.133677,39.9929742 463.27827,39.4323588 L463.904443,37.3582263 C465.773572,37.9224539 467.635478,38.5047426 469.439607,39.0870313 L468.773712,41.1496048 Z M479.664927,44.8911347 C477.886077,44.2409364 476.059559,43.5943503 474.237375,42.9687151 L474.941549,40.9184231 C476.776733,41.5491155 478.615528,42.2000362 480.408101,42.8545692 L479.664927,44.8911347 Z M490.402308,49.0459017 C488.640069,48.3234592 486.840996,47.6067962 485.054923,46.9154187 L485.836375,44.8940245 C487.635448,45.5904591 489.448243,46.3129016 491.224205,47.0404012 L490.402308,49.0459017 Z M500.964187,53.6240201 C499.248171,52.8380026 497.479432,52.0498178 495.706359,51.281139 L496.567978,49.2929771 C498.354051,50.0674355 500.136513,50.8606774 501.866251,51.6524744 L500.964187,53.6240201 Z M511.331064,58.6247674 C509.633104,57.7614486 507.898309,56.9024644 506.174348,56.070933 L507.114691,54.1181708 C508.852374,54.9562042 510.601613,55.8231352 512.312574,56.692956 L511.331064,58.6247674 Z M521.479829,64.0510333 C519.824479,63.1205273 518.127241,62.1892989 516.434336,61.2848008 L517.455568,59.3732179 C519.162195,60.2849404 520.873156,61.2233932 522.541505,62.1618461 L521.479829,64.0510333 Z M531.388813,69.9035404 C529.766686,68.8971779 528.110614,67.8958726 526.466099,66.9249098 L527.566776,65.0581182 C529.225014,66.0370279 530.894808,67.047725 532.529935,68.0605894 L531.388813,69.9035404 Z M541.03635,76.1736192 C539.459723,75.0986247 537.84843,74.02652 536.247248,72.9854803 L537.427371,71.1685373 C539.041553,72.2175238 540.666568,73.2990203 542.256917,74.3826841 L541.03635,76.1736192 Z M550.400773,82.8576576 C548.86748,81.7125862 547.304576,80.5696821 545.754673,79.4636225 L547.013518,77.7001403 C548.5757,78.8148691 550.151604,79.9664425 551.697896,81.1209057 L550.400773,82.8576576 Z M559.463304,89.9462638 C557.979123,88.7318379 556.467498,87.5224691 554.971039,86.3521122 L556.305718,84.6449804 C557.815177,85.8254516 559.338359,87.0442121 560.83554,88.2687522 L559.463304,89.9462638 Z M568.205888,97.424989 C566.775874,96.1462657 565.319138,94.8718771 563.875402,93.6365003 L565.283749,91.9900538 C566.739763,93.2355447 568.208777,94.5200476 569.649624,95.808885 L568.205888,97.424989 Z M576.612636,105.277939 C575.237511,103.934919 573.837109,102.5984 572.452596,101.305228 L573.931721,99.720189 C575.32779,101.02492 576.739026,102.372276 578.125706,103.72541 L576.612636,105.277939 Z M584.671268,113.490666 C583.356811,112.092018 582.016354,110.696259 580.68673,109.340956 L582.233023,107.822382 C583.574202,109.189243 584.925493,110.597284 586.249339,112.006047 L584.671268,113.490666 Z M592.368065,122.041496 C591.116441,120.590832 589.837374,119.138722 588.565528,117.725624 L590.175377,116.27496 C591.457334,117.699617 592.747235,119.163285 594.008247,120.626231 L592.368065,122.041496 Z M599.699413,130.911646 C598.497623,129.394516 597.279945,127.889669 596.080322,126.439004 L597.750116,125.057694 C598.959128,126.519918 600.186195,128.037047 601.398096,129.565735 L599.699413,130.911646 Z M606.657368,140.078719 C605.506135,138.498737 604.351291,136.944763 603.223169,135.459422 L604.949296,134.148911 C606.085363,135.645812 607.248874,137.211345 608.408052,138.801441 L606.657368,140.078719 Z M613.239765,149.519598 C612.166532,147.914331 611.074522,146.314843 609.994789,144.766649 L611.772195,143.526937 C612.859872,145.086691 613.962716,146.69846 615.038838,148.314564 L613.239765,149.519598 Z M619.451658,159.211165 C618.454982,157.597228 617.429416,155.956561 616.389406,154.3354 L618.216646,153.165766 C619.263878,154.799208 620.296666,156.452157 621.293342,158.078375 L619.451658,159.211165 Z M625.287269,169.135358 C624.348372,167.465793 623.380584,165.786837 622.412797,164.14617 L624.283371,163.047335 C625.251158,164.699561 626.226167,166.389354 627.172288,168.0712 L625.287269,169.135358 Z M630.465652,178.706999 C629.678423,177.183368 628.876748,175.673463 628.067852,174.178007 L629.974537,173.147804 C630.790656,174.653374 631.59233,176.172671 632.394004,177.707861 L630.465652,178.706999 L630.465652,178.706999 Z" id="Fill-151" fill="#F2F1F1"></path>
                <path d="M430.510011,58.8299411 C426.883698,58.2946112 424.840512,58.145788 424.821012,58.1443431 L424.974124,55.982795 C425.059347,55.9885746 427.107589,56.1373977 430.825625,56.6850092 L430.510011,58.8299411 Z M441.82662,60.9178 C439.914157,60.5016731 438.015416,60.1187786 436.183843,59.7785081 L436.578902,57.6480251 C438.432142,57.9919077 440.35255,58.3791369 442.287402,58.8003209 L441.82662,60.9178 Z M453.001671,63.6818652 C451.134709,63.1674861 449.260524,62.6762252 447.432562,62.2232537 L447.954012,60.119501 C449.800029,60.5775296 451.69227,61.0724027 453.577288,61.5925614 L453.001671,63.6818652 Z M464.016388,67.0274966 C462.186982,66.4220898 460.340964,65.8361889 458.529613,65.2856876 L459.159397,63.2115551 C460.988081,63.7678359 462.85071,64.3595163 464.696728,64.9707027 L464.016388,67.0274966 Z M474.851992,70.9106253 C473.076031,70.2264722 471.261791,69.5517109 469.457663,68.9044023 L470.188558,66.8642246 C472.008576,67.5165902 473.840149,68.1978535 475.631277,68.889231 L474.851992,70.9106253 Z M485.489705,75.3037984 C483.757078,74.5401766 481.97606,73.7794446 480.19721,73.0447205 L481.02344,71.0413874 C482.818902,71.7826134 484.615808,72.5498474 486.364325,73.321416 L485.489705,75.3037984 Z M495.912194,80.1889548 C494.199067,79.3371951 492.455606,78.4955495 490.729478,77.6864139 L491.648876,75.7235375 C493.39017,76.5398976 495.148798,77.38949 496.87637,78.2491966 L495.912194,80.1889548 Z M506.094181,85.5494785 C504.432332,84.6254745 502.729315,83.7029154 501.033521,82.8106988 L502.043198,80.8933363 C503.753436,81.7934997 505.470897,82.7225608 507.147191,83.6559566 L506.094181,85.5494785 Z M516.020498,91.371643 C514.386094,90.3623907 512.727133,89.3639751 511.090562,88.403849 L512.186906,86.5341677 C513.8372,87.5022407 515.509882,88.5093256 517.158732,89.5272471 L516.020498,91.371643 Z M525.670202,97.6381096 C524.081298,96.5537233 522.469282,95.4816186 520.881101,94.4492482 L522.061223,92.6323052 C523.663127,93.6726225 525.288143,94.7541189 526.891492,95.8478969 L525.670202,97.6381096 Z M535.025959,104.338042 C533.495555,103.189358 531.934818,102.044287 530.386358,100.935337 L531.647371,99.1725775 C533.20883,100.290919 534.78329,101.446104 536.326693,102.603457 L535.025959,104.338042 Z M544.06899,111.451211 C542.599253,110.240397 541.091239,109.025971 539.586836,107.84261 L540.926571,106.139813 C542.443252,107.332566 543.964267,108.557106 545.446281,109.777312 L544.06899,111.451211 Z M552.78774,118.960279 C551.370004,117.683723 549.917602,116.403555 548.470254,115.156619 L549.884379,113.514507 C551.343282,114.771557 552.807963,116.061839 554.237254,117.349954 L552.78774,118.960279 Z M561.165598,126.846462 C559.812141,125.514277 558.417516,124.172702 557.020003,122.857856 L558.504906,121.278597 C559.913253,122.605001 561.320155,123.958136 562.685169,125.301157 L561.165598,126.846462 Z M569.193175,135.090976 C567.885941,133.689437 566.550539,132.287899 565.223804,130.926095 L566.775874,129.4133 C568.113443,130.786663 569.459678,132.199761 570.777746,133.612136 L569.193175,135.090976 Z M576.863249,143.669259 C575.622459,142.220761 574.347725,140.764317 573.074435,139.33966 L574.689339,137.894775 C575.972741,139.330991 577.257586,140.799717 578.508487,142.259773 L576.863249,143.669259 Z M584.167153,152.562526 C582.985586,151.061291 581.772241,149.552831 580.561062,148.078325 L582.235912,146.702072 C583.455757,148.188137 584.678491,149.708878 585.870169,151.221673 L584.167153,152.562526 Z M591.103441,161.746938 C589.994097,160.213915 588.842864,158.656329 587.682242,157.119694 L589.409814,155.813518 C590.579825,157.361712 591.740447,158.930857 592.858458,160.476884 L591.103441,161.746938 Z M597.669227,171.202266 C596.61405,169.616505 595.524928,168.015572 594.432918,166.442815 L596.211768,165.206716 C597.313168,166.79031 598.409511,168.404246 599.473355,170.000844 L597.669227,171.202266 Z M603.868119,180.903947 C602.866388,179.26906 601.839378,177.626225 600.815257,176.023125 L602.641052,174.856381 C603.672395,176.47104 604.706627,178.124711 605.715582,179.772602 L603.868119,180.903947 L603.868119,180.903947 Z" id="Fill-152" fill="#F2F1F1"></path>
                <path d="M530.937419,37.104649 C527.66861,35.5290018 525.727258,34.7046948 525.707758,34.696748 L526.552044,32.7006392 C526.632211,32.734594 528.555508,33.5502317 531.877762,35.1518868 L530.937419,37.104649 Z M541.185851,42.3748673 C539.497279,41.4544755 537.783429,40.5463652 536.093413,39.6765444 L537.085034,37.7490677 C538.790217,38.6275578 540.518511,39.5428925 542.222972,40.4719537 L541.185851,42.3748673 Z M551.181503,48.1153957 C549.54132,47.1234821 547.870804,46.138793 546.216899,45.188781 L547.29591,43.3089855 C548.963537,44.2669443 550.647775,45.2595804 552.302402,46.2594409 L551.181503,48.1153957 Z M560.901985,54.2987815 C559.324636,53.2425705 557.701787,52.1834697 556.078216,51.1510993 L557.240283,49.3225972 C558.879021,50.3643594 560.516314,51.4321295 562.106663,52.4984547 L560.901985,54.2987815 Z M570.308297,60.9401958 C568.78656,59.8066834 567.217879,58.6702813 565.64703,57.5620544 L566.896487,55.7913478 C568.48178,56.9089664 570.064906,58.0569276 571.60181,59.2012766 L570.308297,60.9401958 Z M579.346273,68.0627568 C577.904704,66.8584451 576.401745,65.638962 574.878563,64.438985 L576.218298,62.7361879 C577.758813,63.9491689 579.278383,65.1816559 580.73512,66.3989716 L579.346273,68.0627568 Z M587.936466,75.7004193 C586.570009,74.4029125 585.145051,73.096014 583.702759,71.8136785 L585.14144,70.1939623 C586.601787,71.4907466 588.044079,72.8149838 589.42787,74.1283844 L587.936466,75.7004193 Z M595.974155,83.8893055 C594.717476,82.5079954 593.392185,81.1071793 592.035117,79.7258692 L593.579965,78.2065725 C594.956534,79.6073886 596.301325,81.0284331 597.576781,82.4306941 L595.974155,83.8893055 Z M603.33367,92.672762 C602.191103,91.182363 600.984981,89.6789601 599.747802,88.20301 L601.407485,86.8101407 C602.665608,88.3099315 603.891953,89.8393423 605.052575,91.3550268 L603.33367,92.672762 Z M609.844566,102.087633 C608.862334,100.49826 607.807157,98.8886576 606.707202,97.3014513 L608.488942,96.066797 C609.609119,97.6850683 610.68524,99.3271802 611.686972,100.947619 L609.844566,102.087633 L609.844566,102.087633 Z" id="Fill-153" fill="#F2F1F1"></path>
                <path d="M140.938009,137.507546 L139.324549,136.061216 C141.800351,133.298596 143.311976,131.848654 143.375532,131.787969 L144.871991,133.354946 C144.856824,133.369395 143.350977,134.81428 140.938009,137.507546 Z M133.617494,146.363969 L131.898589,145.044789 C133.085211,143.497317 134.305057,141.963572 135.524179,140.485454 L137.194695,141.86532 C135.992184,143.323209 134.788228,144.836003 133.617494,146.363969 Z M126.933264,155.718155 L125.129135,154.517456 C126.202368,152.905686 127.313878,151.293917 128.434778,149.725494 L130.197017,150.985434 C129.090562,152.534351 127.992051,154.126614 126.933264,155.718155 Z M120.883872,165.491358 L119.004632,164.412029 C119.96303,162.743187 120.965484,161.060618 121.985272,159.414171 L123.827678,160.555631 C122.820169,162.181849 121.829992,163.842744 120.883872,165.491358 Z M115.498932,175.642398 L113.551802,174.693109 C114.39681,172.958524 115.285152,171.213825 116.190827,169.505971 L118.104734,170.521725 C117.210615,172.207906 116.333828,173.930932 115.498932,175.642398 Z M110.832609,186.135876 L108.822645,185.325296 C109.539819,183.545197 110.304659,181.741981 111.093334,179.966939 L113.073686,180.849042 C112.293679,182.59952 111.540394,184.378896 110.832609,186.135876 Z M106.936183,196.933502 L104.872052,196.274635 C105.457057,194.440353 106.088286,192.585843 106.746236,190.763121 L108.784367,191.49929 C108.135083,193.297449 107.513244,195.125229 106.936183,196.933502 Z M103.866709,207.989041 L101.758522,207.490555 C102.199082,205.623041 102.686586,203.725907 103.206591,201.851891 L105.294556,202.432013 C104.781773,204.279298 104.301491,206.148257 103.866709,207.989041 Z M101.679077,219.24614 L99.536945,218.918151 C99.8280034,217.011625 100.16384,215.081981 100.532899,213.18268 L102.659864,213.595917 C102.29586,215.467043 101.965802,217.36779 101.679077,219.24614 Z M100.413731,230.639782 L98.2520994,230.490236 C98.3857118,228.562759 98.5619357,226.612164 98.7749933,224.69119 L100.928681,224.931041 C100.718512,226.821673 100.545177,228.742647 100.413731,230.639782 L100.413731,230.639782 Z" id="Fill-154" fill="#F2F1F1"></path>
                <path d="M100.726456,150.555581 L98.8883832,149.409065 C100.88318,146.213701 102.123248,144.585316 102.175248,144.517406 L103.895598,145.834419 C103.88332,145.851035 102.659142,147.459915 100.726456,150.555581 Z M95.0945135,160.549129 L93.1668839,159.55866 C94.0711148,157.798067 94.9970126,156.07143 95.9207437,154.429318 L97.8093729,155.492031 C96.8993642,157.110302 95.9857443,158.811654 95.0945135,160.549129 Z M90.1970776,170.942187 L88.2080585,170.081758 C88.9801215,168.297325 89.7846848,166.513614 90.6008037,164.781197 L92.5609336,165.703756 C91.7549259,167.415945 90.9597516,169.178705 90.1970776,170.942187 Z M85.9482035,181.624222 L83.9129617,180.882274 C84.5774125,179.059551 85.2736414,177.231772 85.9807038,175.450951 L87.9942787,176.251417 C87.2944386,178.012732 86.6061542,179.821006 85.9482035,181.624222 Z M82.3067241,192.533105 L80.2339264,191.902412 C80.7987096,190.046458 81.3916597,188.183278 81.9983322,186.36778 L84.0530742,187.053378 C83.453624,188.851538 82.8657294,190.695211 82.3067241,192.533105 Z M79.2473614,203.621153 L77.1449523,203.098827 C77.6100679,201.225533 78.1055171,199.335624 78.6175776,197.480391 L80.705542,198.0569 C80.1992594,199.893349 79.7081436,201.76592 79.2473614,203.621153 Z M76.7506152,214.852245 L74.6243726,214.432506 C74.997765,212.534649 75.3986022,210.623066 75.8146062,208.750495 L77.9300154,209.220805 C77.5176226,211.07676 77.1203965,212.971004 76.7506152,214.852245 Z M74.7984298,226.191703 L72.6548537,225.873828 C72.9394119,223.955021 73.2478038,222.026822 73.5720847,220.141969 L75.7069941,220.510415 C75.3856021,222.377929 75.0800992,224.289512 74.7984298,226.191703 Z M73.8862544,233.000001 L71.7354559,232.742812 L71.8719573,231.623748 L74.0220334,231.893219 L73.8862544,233.000001 L73.8862544,233.000001 Z" id="Fill-155" fill="#F2F1F1"></path>
            </g>
        </g>
    </g>
</svg>